Coordinates
version=1
nRows=22
nColumns=24
inDegrees=yes

Units are S.I. units (second, meters, Newtons, ...)
Angles are in degrees.

endheader
time	pelvis_tilt	pelvis_list	pelvis_rotation	pelvis_tx	pelvis_ty	pelvis_tz	hip_flexion_r	hip_adduction_r	hip_rotation_r	knee_angle_r	ankle_angle_r	subtalar_angle_r	mtp_angle_r	hip_flexion_l	hip_adduction_l	hip_rotation_l	knee_angle_l	ankle_angle_l	subtalar_angle_l	mtp_angle_l	lumbar_extension	lumbar_bending	lumbar_rotation
      3.90000000	     -8.64036101	      3.06199265	    -10.44012303	     -0.56939308	     -0.05435111	      0.62377545	     -8.86700946	     -1.26751575	      5.64039893	    -13.50064017	     13.99421905	      0.63811161	      5.99587792	     38.45454812	     -3.60313116	    -24.31130193	    -15.81981249	     -4.09778918	     14.71715028	     15.08616194	      5.25617627	     -1.40525072	     13.96409734
      3.90500000	     -8.70045284	      3.50554029	    -10.47429422	     -0.56130509	     -0.05556451	      0.62383368	     -8.89368199	     -1.82707098	      5.63635734	    -14.23036665	     13.76570553	      0.81540793	      6.16845066	     38.55026666	     -3.19386490	    -24.37194906	    -16.43856820	     -4.70035169	     13.74099179	     15.43729909	      5.48573338	     -1.94350301	     13.98553732
      3.91000000	     -8.75414664	      3.97274542	    -10.47543983	     -0.55318476	     -0.05670524	      0.62384556	     -8.89328228	     -2.41599378	      5.56951758	    -15.01756698	     13.46256735	      1.04684458	      6.40520483	     38.67287946	     -2.74321527	    -24.25279028	    -17.13332759	     -5.40048930	     12.69164893	     15.83333583	      5.71445772	     -2.51407491	     13.95648852
      3.91500000	     -8.80890564	      4.45272074	    -10.44052898	     -0.54504434	     -0.05776881	      0.62383251	     -8.86484484	     -3.01645702	      5.48633030	    -15.85398178	     13.07401979	      1.29837816	      6.68691570	     38.84251810	     -2.27349560	    -24.01264831	    -17.93275844	     -6.14216550	     11.67810315	     16.18097570	      5.94673538	     -3.10861426	     13.90322911
      3.92000000	     -8.84981876	      4.92790124	    -10.37534470	     -0.53685164	     -0.05874432	      0.62372577	     -8.81138485	     -3.62673615	      5.29780071	    -16.76656539	     12.57125012	      1.65342559	      7.06871637	     39.03626578	     -1.78341414	    -23.63263407	    -18.82029667	     -6.84638906	     10.59144859	     16.54154184	      6.16557868	     -3.69693963	     13.77332279
      3.92500000	     -8.88843750	      5.40568388	    -10.28595298	     -0.52867056	     -0.05963205	      0.62359447	     -8.72028508	     -4.24121111	      5.11222534	    -17.75046868	     11.97941349	      2.03789445	      7.50632650	     39.27226756	     -1.28971738	    -23.18330892	    -19.81286028	     -7.50784187	      9.59214572	     16.77240638	      6.37670133	     -4.29645608	     13.64724029
      3.93000000	     -8.92540916	      5.87560010	    -10.17491827	     -0.52046359	     -0.06043907	      0.62342712	     -8.58681959	     -4.85317363	      4.89520791	    -18.81964289	     11.28245302	      2.48276375	      7.99202709	     39.53620473	     -0.79381153	    -22.67210983	    -20.88899964	     -8.05923791	      8.66148033	     16.86984717	      6.58384890	     -4.88645082	     13.50607603
      3.93500000	     -8.95776870	      6.32359979	    -10.04209944	     -0.51224487	     -0.06115718	      0.62320413	     -8.40561234	     -5.45148425	      4.63981234	    -19.99146533	     10.47175488	      3.00364257	      8.51880112	     39.81001941	     -0.30352635	    -22.12717426	    -22.02281523	     -8.48090245	      7.82661901	     16.85975150	      6.77836984	     -5.45703974	     13.34789074
      3.94000000	     -8.97973751	      6.73693869	     -9.88279472	     -0.50400471	     -0.06177783	      0.62292627	     -8.18719050	     -6.02468987	      4.33855346	    -21.25917857	      9.53694546	      3.59961074	      9.09913164	     40.07018309	      0.17592987	    -21.57786226	    -23.18559096	     -8.75614628	      7.10059551	     16.77133998	      6.95253857	     -5.99373292	     13.16275716
      3.94500000	     -9.01257480	      7.12853898	     -9.70503155	     -0.49572921	     -0.06230189	      0.62264161	     -7.90980721	     -6.57643977	      4.04653294	    -22.61759630	      8.47253719	      4.23001728	      9.65129911	     40.31686751	      0.64134027	    -21.10004066	    -24.33507381	     -8.91109886	      6.50237812	     16.63931875	      7.13468808	     -6.50950443	     12.94954930
      3.95000000	     -9.00822852	      7.44295396	     -9.49932850	     -0.48750064	     -0.06270151	      0.62227042	     -7.62057475	     -7.06988727	      3.67280875	    -24.06802956	      7.27326081	      4.96334670	     10.27767133	     40.48848261	      1.07200628	    -20.62477884	    -25.45555766	     -8.88642142	      6.02466693	     16.49559705	      7.24579719	     -6.94917515	     12.71673857
      3.95500000	     -8.99987211	      7.73984018	     -9.27767997	     -0.47925676	     -0.06297875	      0.62190184	     -7.28322538	     -7.55134271	      3.29377191	    -25.59535786	      5.93698125	      5.68764244	     10.93561158	     40.59334100	      1.50238835	    -20.22292901	    -26.48800761	     -8.73785507	      5.66758821	     16.34826651	      7.34896940	     -7.37369443	     12.47671736
      3.96000000	     -8.98217182	      8.00415487	     -9.03793041	     -0.47105422	     -0.06312269	      0.62150398	     -6.90148974	     -8.00805391	      2.90524864	    -27.19268287	      4.47452339	      6.41246592	     11.60918253	     40.61914057	      1.92368199	    -19.88522251	    -27.41634378	     -8.47257057	      5.42755264	     16.22535584	      7.42577562	     -7.76822293	     12.22226673
      3.96500000	     -8.96334706	      8.25062241	     -8.78315570	     -0.46290048	     -0.06313643	      0.62109936	     -6.46233789	     -8.45204196	      2.50590913	    -28.85398792	      2.91015810	      7.10845142	     12.27796367	     40.56712072	      2.34460975	    -19.61824142	    -28.22152248	     -8.11625180	      5.28676419	     16.14202646	      7.48934859	     -8.14473645	     11.96036892
      3.97000000	     -8.93587656	      8.47124816	     -8.52065853	     -0.45485593	     -0.06304802	      0.62070764	     -5.96409856	     -8.86966779	      2.10407483	    -30.59420497	      1.29684248	      7.71426862	     12.82930952	     40.43182114	      2.74687171	    -19.44620218	    -28.90509640	     -7.64918606	      5.25463005	     16.15981418	      7.52133122	     -8.50331249	     11.70316495
      3.97500000	     -8.92239276	      8.72285632	     -8.25630603	     -0.44691708	     -0.06278818	      0.62015529	     -5.38019076	     -9.34607597	      1.72245699	    -32.34503678	     -0.40395671	      8.28402029	     13.84685555	     40.23082844	      3.22926192	    -19.22076146	    -29.41873199	     -7.20829106	      5.12217155	     16.00506239	      7.55886704	     -8.86375239	     11.46073562
      3.98000000	     -8.92073748	      8.94227027	     -7.96620090	     -0.43904269	     -0.06244922	      0.61976734	     -4.73771315	     -9.74977767	      1.38878580	    -34.16894709	     -2.08425891	      8.71049173	     14.21589253	     39.97141526	      3.63729823	    -19.19990623	    -29.83764225	     -6.67093463	      5.36431917	     16.17457078	      7.59511684	     -9.22142768	     11.15265934
      3.98500000	     -8.95492970	      9.20418420	     -7.70033254	     -0.43131513	     -0.06206839	      0.61922589	     -3.95591439	    -10.22924821	      1.05248798	    -36.06057933	     -3.67794740	      9.09892617	     14.86615737	     39.69314332	      4.11115890	    -19.15726872	    -30.12242905	     -6.12706573	      5.42590843	     16.24972764	      7.66553764	     -9.58407344	     10.92213798
      3.99000000	     -8.95001840	      9.44634939	     -7.41589637	     -0.42371446	     -0.06152948	      0.61881194	     -3.17346569	    -10.64796275	      0.78061181	    -37.98925524	     -5.21616524	      9.16998453	     15.07277219	     39.30987973	      4.56521015	    -19.16592750	    -30.30235328	     -5.55705386	      5.69107386	     16.43230802	      7.66939981	     -9.95503108	     10.63228909
      3.99500000	     -8.98391816	      9.72870740	     -7.14310618	     -0.41620742	     -0.06095044	      0.61835071	     -2.27687632	    -11.11053605	      0.55806914	    -39.95962777	     -6.61504693	      9.15433341	     15.30646947	     38.91827865	      5.05836373	    -19.20468056	    -30.37457838	     -5.00236773	      5.93292101	     16.58985592	      7.71689715	    -10.34754277	     10.36802588
      4.00000000	     -9.03648803	     10.03935585	     -6.88499312	     -0.40881608	     -0.06031266	      0.61789893	     -1.29627507	    -11.58981735	      0.40792550	    -41.95622511	     -7.85652468	      8.94438808	     15.53704387	     38.50429477	      5.57480544	    -19.26921691	    -30.35555171	     -4.46980414	      6.17145273	     16.72831172	      7.78275511	    -10.76326231	     10.11488647
      4.00500000	     -9.16942365	     10.38370085	     -6.69533230	     -0.40152726	     -0.05968905	      0.61746852	     -0.14145602	    -12.08717954	      0.40861743	    -43.97294859	     -8.94859698	      8.53523994	     16.01583809	     38.14392996	      6.07442416	    -19.41563082	    -30.26580772	     -3.95762775	      6.37583855	     16.83674283	      7.95113447	    -11.17496719	      9.97881903
